<svg width="717" height="585" viewBox="0 0 717 585" fill="none" xmlns="http://www.w3.org/2000/svg">
<g clip-path="url(#clip0_23_184)">
<path d="M31.6812 356.166C32.4678 357.694 33.2886 359.196 34.1356 360.69C66.6149 417.872 142.169 453.385 269.588 434.589C341.936 423.41 372.747 464.416 402.582 506.419C403.092 507.144 403.602 507.869 404.121 508.594C435.364 552.64 466.296 596.808 543.639 582.126C625.633 569.025 676.235 501.746 684.066 429.917C684.161 429.043 684.247 428.161 684.325 427.288C688.724 380.717 675.129 332.496 640.446 296.092C619.496 274.109 589.731 262.431 559.006 262.798C549.755 262.972 540.508 262.279 531.384 260.728C529.37 260.37 527.417 259.977 525.516 259.531C486.373 250.492 468.336 223.617 457.273 190.82C457.014 190.043 456.755 189.265 456.504 188.479C431.103 110.265 442.849 0.486075 304.755 16.6355C181.182 25.8412 90.4944 95.0854 46.0108 174.976C45.5698 175.78 45.1292 176.583 44.6971 177.387C32.4706 199.554 23.7458 223.515 18.8383 248.404C18.5614 249.802 18.3107 251.199 18.0774 252.596C11.7856 289.699 15.9083 325.762 31.6812 356.166Z" fill="white"/>
<path d="M180.158 52.3217C181.612 52.3245 183.041 52.6324 184.347 53.2246C185.653 53.8169 186.806 54.6795 187.727 55.7538L212.012 84.0702C208.12 87.8686 205.294 92.572 203.819 97.7095C202.344 102.847 202.272 108.238 203.608 113.343L168.199 127.649C166.839 128.198 165.381 128.456 163.925 128.407C162.469 128.358 161.049 128.002 159.762 127.365C158.475 126.727 157.352 125.822 156.47 124.713C155.587 123.603 154.966 122.314 154.65 120.935C152.055 109.595 152.319 97.7447 155.42 86.3862C158.521 75.0276 164.368 64.4958 172.465 55.6822C173.438 54.6227 174.629 53.7741 175.956 53.1942C177.284 52.6143 178.717 52.3167 180.158 52.3217Z" fill="#1A3E59"/>
<path d="M363 123.667C358.392 123.667 354.667 127.392 354.667 132C354.667 136.608 358.392 140.333 363 140.333C367.608 140.333 371.333 136.608 371.333 132C371.333 127.392 367.608 123.667 363 123.667Z" fill="#A3D9A5"/>
<g clip-path="url(#clip1_23_184)">
<path fill-rule="evenodd" clip-rule="evenodd" d="M359 132L360 131L362 133L366 129L367 130L362 135L359 132Z" fill="white" stroke="white" stroke-linecap="round" stroke-linejoin="round"/>
</g>
<path d="M385 139C376.705 139 370 145.705 370 154C370 162.295 376.705 169 385 169C393.295 169 400 162.295 400 154C400 145.705 393.295 139 385 139Z" fill="#A3D9A5"/>
<path fill-rule="evenodd" clip-rule="evenodd" d="M377.8 154L379.6 152.2L383.2 155.8L390.4 148.6L392.2 150.4L383.2 159.4L377.8 154Z" fill="white" stroke="white" stroke-linecap="round" stroke-linejoin="round"/>
<path d="M44.6971 177.387C53.563 188.035 63.5526 197.674 74.4882 206.131C117.088 239.146 171.044 257.051 224.275 260.807C251.63 262.75 279.121 260.863 305.965 255.199C333.276 249.417 359.325 239.233 384.553 227.337C409.09 215.765 432.901 202.716 457.273 190.82C457.014 190.043 456.754 189.265 456.504 188.479C429.927 201.406 403.896 215.651 377.008 227.966C351.677 239.574 325.455 249.042 298.032 254.107C270.67 259.127 242.746 260.233 215.079 257.391C161.995 251.994 107.996 232.202 67.1854 196.794C59.5229 190.147 52.4387 182.847 46.0108 174.976C45.5698 175.78 45.1292 176.583 44.6971 177.387Z" fill="white"/>
<path d="M18.0775 252.596C29.9354 273.847 46.6764 292.59 65.8456 307.447C108.445 340.462 162.402 358.367 215.632 362.122C242.988 364.066 270.478 362.179 297.323 356.515C324.634 350.733 350.683 340.549 375.911 328.653C401.597 316.539 426.496 302.8 452.07 290.459C477.618 278.126 503.874 267.61 531.384 260.728C529.37 260.37 527.417 259.977 525.516 259.531C523.718 260.003 521.926 260.492 520.14 260.999C466.348 276.196 418.873 306.145 368.366 329.282C343.034 340.89 316.812 350.357 289.389 355.423C262.027 360.443 234.103 361.548 206.436 358.707C153.353 353.31 99.3532 333.518 58.5427 298.11C42.3893 284.156 28.9282 267.304 18.8383 248.404C18.5614 249.802 18.3109 251.199 18.0775 252.596Z" fill="white"/>
<path d="M552.118 439.175C499.121 454.145 452.26 483.439 402.582 506.419C403.092 507.144 403.602 507.869 404.121 508.594C405.382 508.008 406.635 507.423 407.889 506.829C433.575 494.715 458.474 480.976 484.048 468.635C510.14 456.04 536.967 445.341 565.116 438.467C604.026 428.996 644.221 426.107 684.066 429.917C684.161 429.043 684.247 428.161 684.325 427.288C639.907 423.05 595.097 427.079 552.118 439.175Z" fill="white"/>
<path d="M339.109 523.447H716.011C716.273 523.447 716.525 523.342 716.71 523.155C716.896 522.967 717 522.713 717 522.448C717 522.183 716.896 521.928 716.71 521.741C716.525 521.553 716.273 521.448 716.011 521.448H339.109C338.847 521.448 338.595 521.553 338.41 521.741C338.224 521.928 338.12 522.183 338.12 522.448C338.12 522.713 338.224 522.967 338.41 523.155C338.595 523.342 338.847 523.447 339.109 523.447Z" fill="#CCCCCC"/>
<path d="M350.255 383.074H270.057C268.901 383.074 267.792 382.61 266.975 381.784C266.157 380.958 265.698 379.838 265.698 378.67C265.698 377.502 266.157 376.381 266.975 375.555C267.792 374.729 268.901 374.265 270.057 374.265H350.255C351.41 374.265 352.519 374.729 353.336 375.555C354.154 376.381 354.613 377.502 354.613 378.67C354.613 379.838 354.154 380.958 353.336 381.784C352.519 382.61 351.41 383.074 350.255 383.074Z" fill="#CCCCCC"/>
<path d="M246.084 387.479C244.274 387.479 242.504 386.937 240.999 385.92C239.494 384.904 238.321 383.459 237.628 381.769C236.935 380.079 236.754 378.219 237.107 376.425C237.461 374.63 238.332 372.982 239.612 371.689C240.892 370.395 242.523 369.514 244.299 369.157C246.074 368.8 247.915 368.983 249.587 369.684C251.26 370.384 252.689 371.569 253.695 373.09C254.701 374.612 255.237 376.4 255.237 378.229C255.235 380.682 254.269 383.033 252.554 384.767C250.838 386.501 248.511 387.476 246.084 387.479Z" fill="#3F3D56"/>
<path d="M350.255 409.503H270.057C268.901 409.503 267.792 409.039 266.975 408.213C266.157 407.386 265.698 406.266 265.698 405.098C265.698 403.93 266.157 402.809 266.975 401.983C267.792 401.157 268.901 400.693 270.057 400.693H350.255C351.41 400.693 352.519 401.157 353.336 401.983C354.154 402.809 354.613 403.93 354.613 405.098C354.613 406.266 354.154 407.386 353.336 408.213C352.519 409.039 351.41 409.503 350.255 409.503Z" fill="#CCCCCC"/>
<path d="M246.084 413.907C244.274 413.907 242.504 413.365 240.999 412.348C239.494 411.332 238.321 409.887 237.628 408.197C236.935 406.507 236.754 404.647 237.107 402.853C237.46 401.059 238.332 399.41 239.612 398.117C240.892 396.823 242.523 395.942 244.299 395.585C246.074 395.228 247.915 395.412 249.587 396.112C251.26 396.812 252.689 397.997 253.695 399.519C254.701 401.04 255.237 402.828 255.237 404.657C255.235 407.11 254.269 409.461 252.554 411.195C250.838 412.929 248.511 413.905 246.084 413.907Z" fill="#3F3D56"/>
<path d="M350.255 435.931H270.057C268.901 435.931 267.792 435.467 266.975 434.641C266.157 433.815 265.698 432.694 265.698 431.526C265.698 430.358 266.157 429.238 266.975 428.411C267.792 427.585 268.901 427.121 270.057 427.121H350.255C351.41 427.121 352.519 427.585 353.336 428.411C354.154 429.238 354.613 430.358 354.613 431.526C354.613 432.694 354.154 433.815 353.336 434.641C352.519 435.467 351.41 435.931 350.255 435.931Z" fill="#CCCCCC"/>
<path d="M246.084 440.335C244.274 440.335 242.504 439.793 240.999 438.777C239.494 437.76 238.321 436.315 237.628 434.625C236.935 432.935 236.754 431.075 237.107 429.281C237.461 427.487 238.332 425.839 239.612 424.545C240.892 423.251 242.523 422.37 244.299 422.013C246.074 421.657 247.915 421.84 249.587 422.54C251.26 423.24 252.689 424.426 253.695 425.947C254.701 427.468 255.237 429.256 255.237 431.086C255.235 433.538 254.269 435.889 252.554 437.623C250.838 439.357 248.511 440.333 246.084 440.335Z" fill="#3F3D56"/>
<path d="M218.248 404.979H185.123C184.892 404.979 184.67 404.886 184.507 404.721C184.343 404.556 184.251 404.332 184.251 404.098V197.148C184.251 196.914 184.343 196.69 184.507 196.525C184.67 196.359 184.892 196.267 185.123 196.267C185.354 196.267 185.576 196.359 185.739 196.525C185.903 196.69 185.995 196.914 185.995 197.148V403.217H218.248C218.363 403.217 218.477 403.239 218.583 403.283C218.689 403.328 218.785 403.392 218.866 403.474C218.948 403.556 219.012 403.653 219.056 403.76C219.1 403.867 219.123 403.982 219.123 404.098C219.123 404.214 219.1 404.329 219.056 404.436C219.012 404.543 218.948 404.64 218.866 404.722C218.785 404.804 218.689 404.869 218.583 404.913C218.477 404.957 218.363 404.98 218.248 404.979Z" fill="#3F3D56"/>
<path d="M76.3058 61.8869C78.5208 62.0673 80.739 61.5798 82.6799 60.4861C84.6207 59.3924 86.197 57.7417 87.2095 55.7427C88.222 53.7436 88.6252 51.4861 88.3681 49.2555C88.111 47.0249 87.2051 44.9214 85.765 43.2111C84.325 41.5008 82.4154 40.2604 80.2778 39.6469C78.1401 39.0333 75.8705 39.0742 73.7558 39.7642C71.6411 40.4542 69.7764 41.7624 68.3974 43.5234C67.0185 45.2844 66.1872 47.4191 66.0088 49.6575C65.7695 52.6591 66.72 55.6339 68.6511 57.9274C70.5822 60.2208 73.3356 61.6451 76.3058 61.8869ZM76.4446 60.1457C74.5704 59.9932 72.7831 59.2824 71.3086 58.1032C69.8341 56.9241 68.7387 55.3295 68.161 53.5213C67.5832 51.713 67.549 49.7722 68.0628 47.9443C68.5765 46.1164 69.6151 44.4835 71.0471 43.2521C72.4791 42.0207 74.2404 41.2461 76.108 41.0262C77.9757 40.8064 79.8659 41.1511 81.5397 42.0169C83.2135 42.8827 84.5956 44.2306 85.5114 45.8903C86.4271 47.5499 86.8353 49.4466 86.6843 51.3407C86.5841 52.5983 86.2397 53.8236 85.6708 54.9468C85.102 56.0699 84.3198 57.0688 83.369 57.8864C82.4181 58.704 81.3173 59.3244 80.1292 59.712C78.9411 60.0997 77.6891 60.2471 76.4446 60.1457Z" fill="#CCCCCC"/>
<path d="M37.6177 32.7527C33.7991 32.7527 30.7035 29.6244 30.7035 25.7654C30.7035 21.9064 33.7991 18.7781 37.6177 18.7781C41.4362 18.7781 44.5319 21.9064 44.5319 25.7654C44.5319 29.6244 41.4362 32.7527 37.6177 32.7527Z" fill="#CCCCCC"/>
<path d="M3.63215 7.48351C1.62628 7.48351 0.00019455 5.84023 0.00019455 3.81315C0.00019455 1.78607 1.62628 0.142792 3.63215 0.142792C5.63801 0.142792 7.2641 1.78607 7.2641 3.81315C7.2641 5.84023 5.63801 7.48351 3.63215 7.48351Z" fill="#CCCCCC"/>
<path d="M129.099 285.376C130.324 287.249 132.071 288.714 134.119 289.584C136.168 290.454 138.426 290.691 140.608 290.264C142.789 289.837 144.797 288.766 146.376 287.186C147.956 285.607 149.036 283.589 149.481 281.389C149.925 279.189 149.715 276.904 148.875 274.825C148.035 272.746 146.604 270.965 144.763 269.708C142.921 268.451 140.752 267.774 138.53 267.762C136.308 267.751 134.133 268.405 132.279 269.643C129.795 271.306 128.065 273.896 127.469 276.845C126.873 279.794 127.459 282.862 129.099 285.376ZM146.404 273.82C147.441 275.405 147.989 277.266 147.979 279.166C147.97 281.066 147.403 282.921 146.35 284.495C145.297 286.07 143.806 287.293 142.065 288.011C140.324 288.73 138.412 288.91 136.57 288.53C134.727 288.149 133.038 287.225 131.715 285.875C130.393 284.524 129.496 282.808 129.139 280.942C128.781 279.077 128.98 277.146 129.708 275.394C130.437 273.642 131.663 272.148 133.231 271.101C135.336 269.699 137.905 269.198 140.374 269.708C142.844 270.217 145.012 271.696 146.404 273.82Z" fill="#CCCCCC"/>
<path d="M115.638 327.134C111.82 327.134 108.724 324.006 108.724 320.147C108.724 316.288 111.82 313.159 115.638 313.159C119.457 313.159 122.553 316.288 122.553 320.147C122.553 324.006 119.457 327.134 115.638 327.134Z" fill="#CCCCCC"/>
<path d="M96.3522 359.617C94.3463 359.617 92.7202 357.973 92.7202 355.946C92.7202 353.919 94.3463 352.276 96.3522 352.276C98.358 352.276 99.9841 353.919 99.9841 355.946C99.9841 357.973 98.358 359.617 96.3522 359.617Z" fill="#CCCCCC"/>
<path d="M408.082 94.6778C409.071 92.6667 409.447 90.4045 409.164 88.1772C408.881 85.9498 407.95 83.8574 406.49 82.1645C405.03 80.4716 403.106 79.2543 400.961 78.6664C398.816 78.0786 396.547 78.1467 394.441 78.862C392.335 79.5774 390.485 80.908 389.127 82.6854C387.769 84.4628 386.963 86.6074 386.811 88.8478C386.659 91.0882 387.168 93.3239 388.273 95.2721C389.378 97.2203 391.03 98.7936 393.02 99.7929C395.689 101.13 398.774 101.342 401.598 100.383C404.421 99.4238 406.753 97.3721 408.082 94.6778ZM389.506 85.3494C390.343 83.6477 391.66 82.235 393.292 81.2899C394.923 80.3448 396.795 79.9098 398.671 80.0399C400.547 80.1699 402.342 80.8592 403.83 82.0205C405.319 83.1819 406.433 84.7631 407.032 86.5643C407.631 88.3655 407.688 90.3058 407.196 92.1397C406.703 93.9737 405.684 95.6189 404.267 96.8674C402.849 98.116 401.097 98.9117 399.232 99.154C397.367 99.3963 395.473 99.0742 393.789 98.2286C391.533 97.0925 389.816 95.0984 389.013 92.6839C388.21 90.2695 388.387 87.6317 389.506 85.3494Z" fill="#CCCCCC"/>
<path d="M444.597 95.9821C440.779 95.9821 437.683 92.8538 437.683 88.9948C437.683 85.1358 440.779 82.0075 444.597 82.0075C448.416 82.0075 451.511 85.1358 451.511 88.9948C451.511 92.8538 448.416 95.9821 444.597 95.9821Z" fill="#CCCCCC"/>
<path d="M484.917 91.5589C482.911 91.5589 481.285 89.9156 481.285 87.8885C481.285 85.8614 482.911 84.2181 484.917 84.2181C486.923 84.2181 488.549 85.8614 488.549 87.8885C488.549 89.9156 486.923 91.5589 484.917 91.5589Z" fill="#CCCCCC"/>
<path d="M277.143 122L320.797 136.184C322.413 136.706 323.897 137.57 325.15 138.716C326.403 139.862 327.394 141.264 328.058 142.827C328.721 144.39 329.041 146.077 328.996 147.775C328.95 149.472 328.54 151.14 327.794 152.665C321.577 165.277 312.413 176.206 301.077 184.526C289.741 192.846 276.568 198.312 262.672 200.461C260.979 200.721 259.251 200.612 257.604 200.142C255.958 199.671 254.433 198.849 253.134 197.734C251.837 196.622 250.796 195.241 250.082 193.689C249.368 192.136 248.999 190.447 249 188.738V147.965C255.465 146.287 261.417 143.04 266.326 138.51C271.236 133.981 274.951 128.31 277.143 122Z" fill="#5A9BD5"/>
<path d="M157.93 146.583C158.592 145.011 159.585 143.6 160.841 142.446C162.097 141.292 163.587 140.422 165.21 139.895L207.976 126C210.472 131.871 214.467 136.983 219.561 140.824C224.655 144.665 230.669 147.1 237 147.886V192.444C236.999 194.154 236.629 195.844 235.914 197.398C235.199 198.951 234.156 200.332 232.858 201.446C231.56 202.559 230.036 203.379 228.391 203.848C226.747 204.318 225.02 204.426 223.329 204.166C209.435 202.017 196.262 196.551 184.928 188.232C173.593 179.913 164.43 168.986 158.213 156.374C157.466 154.858 157.054 153.199 157.005 151.51C156.956 149.82 157.272 148.14 157.93 146.583Z" fill="#A3D9A5"/>
<path d="M240.05 69.9726C233.244 69.9649 226.552 71.7222 220.628 75.0729L201.223 48.3645C200.234 47.0043 199.552 45.4457 199.224 43.7962C198.895 42.1467 198.929 40.4456 199.322 38.8104C199.703 37.2063 200.427 35.7039 201.444 34.4069C202.462 33.1099 203.749 32.0491 205.216 31.2978C217.197 25.2049 230.444 22.0197 243.885 22.0001C257.325 21.9805 270.582 25.1272 282.58 31.1852C284.093 31.9487 285.422 33.0319 286.475 34.36C287.527 35.6881 288.279 37.2291 288.677 38.8765C289.07 40.5003 289.105 42.1901 288.779 43.8288C288.454 45.4674 287.776 47.0158 286.793 48.3665L264.78 78.6651C257.771 73.0287 249.045 69.9612 240.05 69.9726Z" fill="#2E2E2E"/>
<path d="M279.66 107.972C279.67 98.924 276.213 90.2156 270 83.6377L291.323 54.2897C292.201 53.0806 293.329 52.0749 294.63 51.341C295.931 50.6071 297.376 50.1622 298.864 50.0367C300.353 49.9113 301.852 50.1081 303.257 50.6138C304.663 51.1195 305.944 51.9223 307.012 52.9674C314.316 60.0877 320.115 68.6034 324.064 78.0086C328.013 87.4138 330.031 97.5167 330 107.717C330 111.569 329.712 115.416 329.141 119.225C328.916 120.731 328.366 122.17 327.528 123.442C326.691 124.713 325.586 125.787 324.291 126.588C323.01 127.38 321.572 127.884 320.077 128.064C318.582 128.243 317.065 128.094 315.633 127.628L278.815 115.665C279.375 113.139 279.659 110.56 279.66 107.972Z" fill="#CECECE"/>
<path d="M488.908 316.55C487.615 315.766 486.51 314.707 485.67 313.45C484.831 312.192 484.277 310.765 484.048 309.271C483.82 307.776 483.921 306.249 484.347 304.798C484.772 303.346 485.51 302.006 486.509 300.871L485.115 224.862L501.773 226.258L501.734 300.359C503.529 302.164 504.6 304.565 504.744 307.107C504.887 309.649 504.093 312.156 502.512 314.151C500.931 316.147 498.673 317.494 496.166 317.936C493.659 318.378 491.076 317.885 488.908 316.55Z" fill="#FFB6B6"/>
<path d="M482.489 243.468L504.274 241.391C504.894 241.332 505.494 241.14 506.033 240.828C506.572 240.516 507.037 240.092 507.398 239.584C507.758 239.076 508.004 238.496 508.12 237.885C508.236 237.273 508.219 236.643 508.07 236.039L502.838 214.857C502.518 211.687 500.953 208.774 498.488 206.756C496.023 204.738 492.859 203.78 489.688 204.091C486.517 204.403 483.6 205.959 481.575 208.419C479.55 210.878 478.583 214.04 478.886 217.212L477.75 238.93C477.718 239.552 477.82 240.173 478.049 240.752C478.279 241.331 478.63 241.853 479.08 242.284C479.53 242.715 480.067 243.043 480.655 243.248C481.243 243.452 481.869 243.527 482.489 243.468Z" fill="#E4E4E4"/>
<path d="M518.723 514.308H510.27L506.249 481.702L518.724 481.703L518.723 514.308Z" fill="#FFB6B6"/>
<path d="M520.879 511.547L504.232 511.547C501.418 511.547 498.719 512.665 496.729 514.654C494.74 516.644 493.622 519.342 493.622 522.156V522.5L520.878 522.501L520.879 511.547Z" fill="#2F2E41"/>
<path d="M440.81 514.308H432.356L428.335 481.702L440.811 481.703L440.81 514.308Z" fill="#FFB6B6"/>
<path d="M442.966 511.547L426.319 511.547C423.505 511.547 420.806 512.665 418.816 514.654C416.827 516.644 415.709 519.342 415.709 522.156V522.5L442.965 522.501L442.966 511.547Z" fill="#2F2E41"/>
<path d="M451.015 252.367L445.5 287.532L497.902 288.222L491.007 254.436L451.015 252.367Z" fill="#FFB6B6"/>
<path d="M447.021 278.945C430.393 307.908 428.974 406.118 428.262 507.552H442.397L476.183 359.584L507.21 503.69H521L511.347 341.657C511.347 341.657 514.194 309.135 499.626 289.945L496.08 279.7L447.021 278.945Z" fill="#2F2E41"/>
<path d="M489.209 271.788C489.515 271.788 489.82 271.758 490.12 271.698C491.129 271.496 492.044 270.97 492.726 270.199C493.408 269.428 493.818 268.455 493.895 267.429C494.413 260.332 496.981 247.979 501.528 230.712C503.063 224.843 502.723 218.642 500.556 212.976C498.389 207.31 494.503 202.465 489.443 199.119C484.384 195.773 478.404 194.094 472.342 194.318C466.28 194.542 460.44 196.657 455.641 200.367C452.568 202.721 450.003 205.672 448.101 209.043C446.199 212.415 444.999 216.136 444.573 219.983C442.314 239.884 446.574 259.866 448.51 267.532C448.765 268.533 449.341 269.423 450.149 270.066C450.957 270.708 451.954 271.068 452.987 271.09L489.109 271.787C489.142 271.788 489.176 271.788 489.209 271.788Z" fill="#E4E4E4"/>
<path d="M388.291 207.946C388.508 208.433 388.686 208.936 388.824 209.451L434.038 224.815L442.775 217.183L456.017 228.862L441.864 243.877C440.72 245.09 439.214 245.9 437.572 246.184C435.929 246.468 434.239 246.212 432.754 245.454L384.372 220.74C382.622 221.813 380.587 222.328 378.538 222.217C376.488 222.105 374.521 221.372 372.898 220.116C371.275 218.859 370.074 217.138 369.453 215.182C368.832 213.225 368.821 211.126 369.422 209.163C370.024 207.201 371.208 205.468 372.818 204.195C374.428 202.922 376.388 202.169 378.436 202.037C380.485 201.905 382.525 202.4 384.285 203.455C386.045 204.511 387.443 206.077 388.291 207.946Z" fill="#FFB6B6"/>
<path d="M435.615 225.655L452.097 240.051C452.566 240.461 453.118 240.765 453.715 240.942C454.312 241.119 454.94 241.165 455.556 241.078C456.173 240.99 456.763 240.771 457.287 240.435C457.812 240.098 458.257 239.653 458.594 239.129L470.383 220.771C472.465 218.359 473.506 215.221 473.278 212.043C473.05 208.865 471.571 205.908 469.165 203.819C466.759 201.73 463.623 200.681 460.445 200.9C457.267 201.12 454.305 202.591 452.21 204.991L435.654 219.094C435.18 219.498 434.799 219.999 434.536 220.563C434.274 221.128 434.136 221.743 434.132 222.365C434.128 222.988 434.259 223.604 434.515 224.172C434.77 224.739 435.146 225.245 435.615 225.655Z" fill="#E4E4E4"/>
<path d="M457.754 178.309C451.884 167.572 455.83 154.11 466.568 148.24C477.305 142.371 490.767 146.317 496.636 157.054C502.506 167.791 498.56 181.253 487.823 187.123C477.086 192.992 463.623 189.046 457.754 178.309Z" fill="#FFB6B6"/>
<path d="M471.096 137.014H475.589C477.745 136.339 479.992 135.997 482.252 136C482.624 136 482.994 136.009 483.362 136.027C487.563 136.292 491.579 137.846 494.863 140.479C498.147 143.112 500.538 146.694 501.71 150.737C506.734 167.506 504.564 186.06 504.564 186.06C497.231 189.376 486.024 191.831 469.473 189.813L467.039 179.61L467.242 189.508C464.909 189.184 462.475 188.765 459.94 188.251V166.425H449.798C449.798 150.178 454.848 137.014 471.096 137.014Z" fill="#2F2E41"/>
<path d="M354.5 166.75C344.131 166.75 335.75 175.131 335.75 185.5C335.75 195.869 344.131 204.25 354.5 204.25C364.869 204.25 373.25 195.869 373.25 185.5C373.25 175.131 364.869 166.75 354.5 166.75Z" fill="#A3D9A5"/>
<path fill-rule="evenodd" clip-rule="evenodd" d="M345.5 185.5L347.75 183.25L352.25 187.75L361.25 178.75L363.5 181L352.25 192.25L345.5 185.5Z" fill="white" stroke="white" stroke-width="3" stroke-linecap="round" stroke-linejoin="round"/>
</g>
<defs>
<clipPath id="clip0_23_184">
<rect width="717" height="585" fill="white" transform="matrix(-1 0 0 1 717 0)"/>
</clipPath>
<clipPath id="clip1_23_184">
<rect width="9.6" height="9.6" fill="white" transform="translate(358.2 127.2)"/>
</clipPath>
</defs>
</svg>
