<svg width="418" height="100" viewBox="0 0 418 100" fill="none" xmlns="http://www.w3.org/2000/svg">
<path d="M18.64 47.2H45.52V57.6H18.64V47.2ZM19.6 78H6.64V22H48.96V32.4H19.6V78ZM56.8538 78V34.96H69.3338V78H56.8538ZM63.0938 28.96C60.8004 28.96 58.9338 28.2933 57.4938 26.96C56.0538 25.6267 55.3338 23.9733 55.3338 22C55.3338 20.0267 56.0538 18.3733 57.4938 17.04C58.9338 15.7067 60.8004 15.04 63.0938 15.04C65.3871 15.04 67.2538 15.68 68.6938 16.96C70.1338 18.1867 70.8538 19.7867 70.8538 21.76C70.8538 23.84 70.1338 25.5733 68.6938 26.96C67.3071 28.2933 65.4404 28.96 63.0938 28.96ZM107.076 34.32C110.49 34.32 113.53 35.0133 116.196 36.4C118.916 37.7333 121.05 39.8133 122.596 42.64C124.143 45.4133 124.916 48.9867 124.916 53.36V78H112.436V55.28C112.436 51.8133 111.663 49.2533 110.116 47.6C108.623 45.9467 106.49 45.12 103.716 45.12C101.743 45.12 99.9563 45.5467 98.3563 46.4C96.8096 47.2 95.5829 48.4533 94.6763 50.16C93.8229 51.8667 93.3963 54.0533 93.3963 56.72V78H80.9163V34.96H92.8363V46.88L90.5963 43.28C92.1429 40.4 94.3563 38.1867 97.2363 36.64C100.116 35.0933 103.396 34.32 107.076 34.32Z" fill="#1A3E59"/>
<path d="M149.109 47.2H175.989V57.6H149.109V47.2ZM150.069 78H137.109V22H179.429V32.4H150.069V78ZM212.473 78V69.6L211.673 67.76V52.72C211.673 50.0533 210.846 47.9733 209.193 46.48C207.593 44.9867 205.113 44.24 201.753 44.24C199.459 44.24 197.193 44.6133 194.953 45.36C192.766 46.0533 190.899 47.0133 189.353 48.24L184.873 39.52C187.219 37.8667 190.046 36.5867 193.353 35.68C196.659 34.7733 200.019 34.32 203.433 34.32C209.993 34.32 215.086 35.8667 218.713 38.96C222.339 42.0533 224.153 46.88 224.153 53.44V78H212.473ZM199.353 78.64C195.993 78.64 193.113 78.08 190.713 76.96C188.313 75.7867 186.473 74.2133 185.193 72.24C183.913 70.2667 183.273 68.0533 183.273 65.6C183.273 63.04 183.886 60.8 185.113 58.88C186.393 56.96 188.393 55.4667 191.113 54.4C193.833 53.28 197.379 52.72 201.753 52.72H213.193V60H203.113C200.179 60 198.153 60.48 197.033 61.44C195.966 62.4 195.433 63.6 195.433 65.04C195.433 66.64 196.046 67.92 197.273 68.88C198.553 69.7867 200.286 70.24 202.473 70.24C204.553 70.24 206.419 69.76 208.073 68.8C209.726 67.7867 210.926 66.32 211.673 64.4L213.593 70.16C212.686 72.9333 211.033 75.04 208.633 76.48C206.233 77.92 203.139 78.64 199.353 78.64ZM197.433 29.44L208.233 17.92H221.673L207.193 29.44H197.433ZM256.56 78.64C251.92 78.64 247.787 77.7067 244.16 75.84C240.533 73.92 237.68 71.28 235.6 67.92C233.573 64.56 232.56 60.7467 232.56 56.48C232.56 52.16 233.573 48.3467 235.6 45.04C237.68 41.68 240.533 39.0667 244.16 37.2C247.787 35.28 251.92 34.32 256.56 34.32C261.093 34.32 265.04 35.28 268.4 37.2C271.76 39.0667 274.24 41.76 275.84 45.28L266.16 50.48C265.04 48.4533 263.627 46.96 261.92 46C260.267 45.04 258.453 44.56 256.48 44.56C254.347 44.56 252.427 45.04 250.72 46C249.013 46.96 247.653 48.32 246.64 50.08C245.68 51.84 245.2 53.9733 245.2 56.48C245.2 58.9867 245.68 61.12 246.64 62.88C247.653 64.64 249.013 66 250.72 66.96C252.427 67.92 254.347 68.4 256.48 68.4C258.453 68.4 260.267 67.9467 261.92 67.04C263.627 66.08 265.04 64.56 266.16 62.48L275.84 67.76C274.24 71.2267 271.76 73.92 268.4 75.84C265.04 77.7067 261.093 78.64 256.56 78.64ZM282.791 78V34.96H295.271V78H282.791ZM289.031 28.96C286.738 28.96 284.871 28.2933 283.431 26.96C281.991 25.6267 281.271 23.9733 281.271 22C281.271 20.0267 281.991 18.3733 283.431 17.04C284.871 15.7067 286.738 15.04 289.031 15.04C291.325 15.04 293.191 15.68 294.631 16.96C296.071 18.1867 296.791 19.7867 296.791 21.76C296.791 23.84 296.071 25.5733 294.631 26.96C293.245 28.2933 291.378 28.96 289.031 28.96ZM306.854 78V18.64H319.334V78H306.854Z" fill="#A3D9A5"/>
<path d="M373 87.5C367.813 87.5 362.938 86.515 358.375 84.545C353.813 82.575 349.844 79.9038 346.469 76.5313C343.094 73.1588 340.423 69.19 338.455 64.625C336.488 60.06 335.503 55.185 335.5 50C335.498 44.815 336.483 39.94 338.455 35.375C340.428 30.81 343.099 26.8413 346.469 23.4688C349.839 20.0963 353.808 17.425 358.375 15.455C362.943 13.485 367.818 12.5 373 12.5C378.183 12.5 383.058 13.485 387.625 15.455C392.193 17.425 396.161 20.0963 399.531 23.4688C402.901 26.8413 405.574 30.81 407.549 35.375C409.524 39.94 410.508 44.815 410.5 50C410.493 55.185 409.508 60.06 407.545 64.625C405.583 69.19 402.911 73.1588 399.531 76.5313C396.151 79.9038 392.183 82.5763 387.625 84.5488C383.068 86.5213 378.193 87.505 373 87.5ZM373 80C381.375 80 388.469 77.0938 394.281 71.2813C400.094 65.4688 403 58.375 403 50C403 41.625 400.094 34.5313 394.281 28.7188C388.469 22.9063 381.375 20 373 20C364.625 20 357.531 22.9063 351.719 28.7188C345.906 34.5313 343 41.625 343 50C343 58.375 345.906 65.4688 351.719 71.2813C357.531 77.0938 364.625 80 373 80Z" fill="#1A3E59"/>
<path d="M395.979 60.2935L366.901 73.8525C365.8 74.3663 364.543 74.4296 363.407 74.0287C362.272 73.6277 361.351 72.7953 360.847 71.7146L352.296 53.3775C351.793 52.2967 351.747 51.0562 352.169 49.9287C352.592 48.8013 353.449 47.8793 354.55 47.3656L383.628 33.8065C384.729 33.2928 385.986 33.2295 387.121 33.6304C388.257 34.0313 389.178 34.8637 389.682 35.9445L398.232 54.2816C398.736 55.3623 398.782 56.6029 398.359 57.7303C397.937 58.8578 397.08 59.7798 395.979 60.2935Z" fill="#A3D9A5" stroke="black" stroke-width="1.5"/>
<path d="M384.975 50.2531C384.7 50.3815 384.385 50.3953 384.099 50.2913C383.814 50.1874 383.581 49.9743 383.453 49.6988C383.324 49.4234 383.31 49.1083 383.414 48.8227C383.518 48.5371 383.731 48.3046 384.007 48.1761C384.282 48.0477 384.597 48.0339 384.883 48.1379C385.168 48.2418 385.401 48.4549 385.529 48.7303C385.658 49.0058 385.672 49.3209 385.568 49.6065C385.464 49.8921 385.251 50.1246 384.975 50.2531Z" fill="#A3D9A5" stroke="black" stroke-width="1.5" stroke-linecap="round" stroke-linejoin="round"/>
<path d="M381.311 34.2616L379.958 31.3601C379.661 30.7236 379.222 30.1639 378.674 29.7242C378.126 29.2845 377.485 28.9765 376.799 28.8241C376.114 28.6717 375.402 28.679 374.72 28.8452C374.037 29.0115 373.402 29.3325 372.864 29.7832L352.858 46.5284C352.083 47.1767 351.544 48.0628 351.325 49.0489C351.106 50.035 351.218 51.066 351.645 51.9814L352.094 52.943" fill="#A3D9A5"/>
<path d="M381.311 34.2616L379.958 31.3601C379.661 30.7236 379.222 30.1639 378.674 29.7242C378.126 29.2845 377.485 28.9765 376.799 28.8241C376.114 28.6717 375.402 28.679 374.72 28.8452C374.037 29.0115 373.402 29.3325 372.864 29.7832L352.858 46.5284C352.083 47.1767 351.544 48.0628 351.325 49.0489C351.106 50.035 351.218 51.066 351.645 51.9814L352.094 52.943" stroke="black" stroke-width="1.5"/>
</svg>
