<svg width="713" height="585" viewBox="0 0 713 585" fill="none" xmlns="http://www.w3.org/2000/svg">
<g clip-path="url(#clip0_31_140)">
<path d="M685.319 356.166C684.532 357.694 683.711 359.196 682.864 360.69C650.385 417.872 574.831 453.385 447.412 434.589C375.064 423.41 344.253 464.416 314.418 506.419C313.908 507.144 313.398 507.869 312.879 508.594C281.636 552.64 250.704 596.808 173.361 582.126C91.3675 569.025 40.7647 501.746 32.9344 429.917C32.839 429.043 32.7529 428.161 32.6748 427.288C28.2759 380.717 41.8708 332.496 76.5538 296.092C97.5039 274.109 127.269 262.431 157.994 262.798C167.245 262.972 176.492 262.279 185.616 260.728C187.63 260.37 189.583 259.977 191.484 259.531C230.627 250.492 248.664 223.617 259.727 190.82C259.986 190.043 260.245 189.265 260.496 188.479C285.897 110.265 274.151 0.486091 412.245 16.6355C535.818 25.8412 626.506 95.0854 670.989 174.976C671.43 175.78 671.871 176.583 672.303 177.387C684.529 199.554 693.254 223.515 698.162 248.404C698.439 249.802 698.689 251.199 698.923 252.596C705.214 289.699 701.092 325.762 685.319 356.166Z" fill="white"/>
<path d="M536.842 52.3217C535.388 52.3244 533.959 52.6324 532.653 53.2246C531.347 53.8168 530.194 54.6794 529.273 55.7538L504.988 84.0701C508.88 87.8685 511.706 92.572 513.181 97.7095C514.656 102.847 514.728 108.238 513.392 113.343L548.801 127.649C550.161 128.198 551.619 128.456 553.075 128.407C554.531 128.358 555.951 128.002 557.238 127.365C558.525 126.727 559.648 125.822 560.53 124.713C561.413 123.603 562.034 122.314 562.35 120.935C564.945 109.595 564.681 97.7446 561.58 86.3861C558.479 75.0276 552.632 64.4957 544.535 55.6822C543.562 54.6226 542.371 53.774 541.044 53.1942C539.716 52.6143 538.283 52.3167 536.842 52.3217Z" fill="#1A3E59"/>
<path d="M672.303 177.387C663.437 188.035 653.447 197.674 642.512 206.131C599.912 239.146 545.956 257.051 492.725 260.807C465.37 262.75 437.879 260.863 411.035 255.199C383.724 249.417 357.675 239.233 332.447 227.337C307.91 215.765 284.099 202.716 259.727 190.82C259.986 190.043 260.246 189.265 260.496 188.479C287.073 201.406 313.104 215.651 339.992 227.966C365.323 239.574 391.545 249.042 418.968 254.107C446.33 259.127 474.254 260.233 501.921 257.391C555.005 251.994 609.004 232.202 649.815 196.794C657.477 190.147 664.561 182.847 670.989 174.976C671.43 175.78 671.871 176.583 672.303 177.387Z" fill="#B3B3B3"/>
<path d="M698.923 252.596C687.065 273.847 670.324 292.59 651.154 307.447C608.555 340.462 554.598 358.367 501.368 362.122C474.012 364.066 446.522 362.179 419.677 356.515C392.366 350.733 366.317 340.549 341.089 328.653C315.403 316.539 290.504 302.8 264.93 290.459C239.382 278.126 213.126 267.61 185.616 260.728C187.63 260.37 189.583 259.977 191.484 259.531C193.282 260.003 195.074 260.492 196.86 260.999C250.652 276.196 298.126 306.145 348.634 329.282C373.966 340.89 400.188 350.357 427.611 355.423C454.973 360.443 482.897 361.548 510.564 358.707C563.647 353.31 617.647 333.518 658.457 298.11C674.611 284.156 688.072 267.304 698.162 248.404C698.439 249.802 698.689 251.199 698.923 252.596Z" fill="#B3B3B3"/>
<path d="M164.882 439.175C217.879 454.145 264.74 483.439 314.418 506.419C313.908 507.144 313.398 507.869 312.879 508.594C311.618 508.008 310.365 507.423 309.111 506.829C283.425 494.715 258.526 480.976 232.952 468.635C206.86 456.04 180.033 445.341 151.884 438.467C112.974 428.996 72.7793 426.107 32.9344 429.917C32.839 429.043 32.7529 428.161 32.6749 427.288C77.0925 423.05 121.902 427.079 164.882 439.175Z" fill="#B3B3B3"/>
<path d="M377.891 523.447H0.989249C0.726886 523.447 0.475267 523.342 0.289748 523.155C0.104229 522.967 6.67572e-06 522.713 6.67572e-06 522.448C6.67572e-06 522.183 0.104229 521.928 0.289748 521.741C0.475267 521.553 0.726886 521.448 0.989249 521.448H377.891C378.153 521.448 378.405 521.553 378.59 521.741C378.776 521.928 378.88 522.183 378.88 522.448C378.88 522.713 378.776 522.967 378.59 523.155C378.405 523.342 378.153 523.447 377.891 523.447Z" fill="#CCCCCC"/>
<path d="M475.71 383.074H395.512C394.356 383.074 393.248 382.61 392.43 381.784C391.613 380.958 391.154 379.838 391.154 378.67C391.154 377.502 391.613 376.381 392.43 375.555C393.248 374.729 394.356 374.265 395.512 374.265H475.71C476.866 374.265 477.975 374.729 478.792 375.555C479.609 376.381 480.069 377.502 480.069 378.67C480.069 379.838 479.609 380.958 478.792 381.784C477.975 382.61 476.866 383.074 475.71 383.074Z" fill="#CCCCCC"/>
<path d="M371.54 387.479C369.73 387.479 367.96 386.937 366.455 385.92C364.95 384.904 363.777 383.459 363.084 381.769C362.391 380.079 362.21 378.219 362.563 376.425C362.916 374.63 363.788 372.982 365.068 371.689C366.348 370.395 367.979 369.514 369.754 369.157C371.53 368.8 373.37 368.983 375.043 369.684C376.715 370.384 378.145 371.569 379.15 373.09C380.156 374.612 380.693 376.4 380.693 378.229C380.69 380.682 379.725 383.033 378.009 384.767C376.293 386.501 373.967 387.476 371.54 387.479Z" fill="#3F3D56"/>
<path d="M475.71 409.503H395.512C394.356 409.503 393.248 409.039 392.43 408.212C391.613 407.386 391.154 406.266 391.154 405.098C391.154 403.93 391.613 402.809 392.43 401.983C393.248 401.157 394.356 400.693 395.512 400.693H475.71C476.866 400.693 477.975 401.157 478.792 401.983C479.609 402.809 480.069 403.93 480.069 405.098C480.069 406.266 479.609 407.386 478.792 408.212C477.975 409.039 476.866 409.503 475.71 409.503Z" fill="#CCCCCC"/>
<path d="M371.54 413.907C369.73 413.907 367.96 413.365 366.455 412.348C364.95 411.332 363.776 409.887 363.084 408.197C362.391 406.507 362.21 404.647 362.563 402.853C362.916 401.059 363.788 399.41 365.068 398.117C366.348 396.823 367.979 395.942 369.754 395.585C371.53 395.228 373.37 395.412 375.043 396.112C376.715 396.812 378.145 397.997 379.15 399.519C380.156 401.04 380.693 402.828 380.693 404.657C380.69 407.11 379.725 409.461 378.009 411.195C376.293 412.929 373.967 413.905 371.54 413.907Z" fill="#3F3D56"/>
<path d="M475.71 435.931H395.512C394.356 435.931 393.248 435.467 392.43 434.641C391.613 433.815 391.154 432.694 391.154 431.526C391.154 430.358 391.613 429.237 392.43 428.411C393.248 427.585 394.356 427.121 395.512 427.121H475.71C476.866 427.121 477.975 427.585 478.792 428.411C479.609 429.237 480.069 430.358 480.069 431.526C480.069 432.694 479.609 433.815 478.792 434.641C477.975 435.467 476.866 435.931 475.71 435.931Z" fill="#CCCCCC"/>
<path d="M371.54 440.335C369.73 440.335 367.96 439.793 366.455 438.777C364.95 437.76 363.777 436.315 363.084 434.625C362.391 432.935 362.21 431.075 362.563 429.281C362.916 427.487 363.788 425.839 365.068 424.545C366.348 423.251 367.979 422.37 369.754 422.013C371.53 421.657 373.37 421.84 375.043 422.54C376.715 423.24 378.145 424.425 379.15 425.947C380.156 427.468 380.693 429.256 380.693 431.086C380.69 433.538 379.725 435.889 378.009 437.623C376.293 439.357 373.967 440.333 371.54 440.335Z" fill="#3F3D56"/>
<path d="M498.752 404.979H531.877C532.108 404.979 532.33 404.886 532.493 404.721C532.657 404.556 532.749 404.332 532.749 404.098V197.148C532.749 196.914 532.657 196.69 532.493 196.525C532.33 196.359 532.108 196.267 531.877 196.267C531.646 196.267 531.424 196.359 531.261 196.525C531.097 196.69 531.005 196.914 531.005 197.148V403.217H498.752C498.637 403.217 498.523 403.239 498.417 403.283C498.311 403.327 498.215 403.392 498.134 403.474C498.052 403.556 497.988 403.653 497.944 403.76C497.9 403.867 497.877 403.982 497.877 404.098C497.877 404.214 497.9 404.329 497.944 404.436C497.988 404.543 498.052 404.64 498.134 404.722C498.215 404.804 498.311 404.869 498.417 404.913C498.523 404.957 498.637 404.979 498.752 404.979Z" fill="#3F3D56"/>
<path d="M640.694 61.887C638.479 62.0673 636.261 61.5798 634.32 60.4861C632.379 59.3924 630.803 57.7417 629.79 55.7427C628.778 53.7436 628.375 51.4861 628.632 49.2555C628.889 47.0249 629.795 44.9215 631.235 43.2111C632.675 41.5008 634.585 40.2605 636.722 39.6469C638.86 39.0333 641.13 39.0742 643.244 39.7642C645.359 40.4542 647.224 41.7624 648.603 43.5234C649.982 45.2844 650.813 47.4191 650.991 49.6575C651.23 52.6592 650.28 55.6339 648.349 57.9274C646.418 60.2208 643.664 61.6451 640.694 61.887ZM640.555 60.1458C642.43 59.9932 644.217 59.2824 645.691 58.1032C647.166 56.9241 648.261 55.3296 648.839 53.5213C649.417 51.713 649.451 49.7722 648.937 47.9443C648.424 46.1164 647.385 44.4835 645.953 43.2521C644.521 42.0207 642.76 41.2461 640.892 41.0263C639.024 40.8064 637.134 41.1511 635.46 42.0169C633.787 42.8827 632.404 44.2307 631.489 45.8903C630.573 47.5499 630.165 49.4467 630.316 51.3407C630.416 52.5983 630.76 53.8237 631.329 54.9468C631.898 56.0699 632.68 57.0688 633.631 57.8864C634.582 58.704 635.683 59.3244 636.871 59.7121C638.059 60.0997 639.311 60.2471 640.555 60.1458Z" fill="#CCCCCC"/>
<path d="M679.382 32.7527C683.201 32.7527 686.296 29.6244 686.296 25.7654C686.296 21.9064 683.201 18.7781 679.382 18.7781C675.564 18.7781 672.468 21.9064 672.468 25.7654C672.468 29.6244 675.564 32.7527 679.382 32.7527Z" fill="#CCCCCC"/>
<path d="M713.368 7.48354C715.374 7.48354 717 5.84026 717 3.81318C717 1.7861 715.374 0.142822 713.368 0.142822C711.362 0.142822 709.736 1.7861 709.736 3.81318C709.736 5.84026 711.362 7.48354 713.368 7.48354Z" fill="#CCCCCC"/>
<path d="M587.901 285.376C586.676 287.249 584.929 288.714 582.881 289.584C580.832 290.454 578.574 290.691 576.392 290.264C574.211 289.837 572.203 288.766 570.624 287.186C569.044 285.607 567.964 283.589 567.519 281.389C567.075 279.189 567.285 276.904 568.125 274.825C568.965 272.746 570.396 270.965 572.237 269.708C574.079 268.451 576.248 267.774 578.47 267.762C580.692 267.751 582.867 268.405 584.721 269.643C587.205 271.306 588.935 273.896 589.531 276.845C590.127 279.794 589.541 282.862 587.901 285.376ZM570.596 273.82C569.559 275.405 569.011 277.266 569.021 279.166C569.03 281.066 569.597 282.921 570.65 284.495C571.703 286.07 573.194 287.293 574.935 288.011C576.676 288.729 578.588 288.91 580.43 288.529C582.273 288.149 583.962 287.225 585.285 285.875C586.607 284.524 587.504 282.808 587.861 280.942C588.219 279.077 588.02 277.146 587.292 275.394C586.563 273.642 585.337 272.148 583.769 271.101C581.664 269.699 579.095 269.198 576.626 269.708C574.156 270.217 571.988 271.696 570.596 273.82Z" fill="#CCCCCC"/>
<path d="M601.362 327.134C605.18 327.134 608.276 324.006 608.276 320.147C608.276 316.288 605.18 313.159 601.362 313.159C597.543 313.159 594.447 316.288 594.447 320.147C594.447 324.006 597.543 327.134 601.362 327.134Z" fill="#CCCCCC"/>
<path d="M620.648 359.617C622.654 359.617 624.28 357.973 624.28 355.946C624.28 353.919 622.654 352.276 620.648 352.276C618.642 352.276 617.016 353.919 617.016 355.946C617.016 357.973 618.642 359.617 620.648 359.617Z" fill="#CCCCCC"/>
<path d="M308.918 94.6778C307.929 92.6667 307.553 90.4045 307.836 88.1771C308.119 85.9498 309.05 83.8574 310.51 82.1645C311.97 80.4716 313.894 79.2542 316.039 78.6664C318.184 78.0786 320.453 78.1467 322.559 78.862C324.665 79.5774 326.515 80.9079 327.873 82.6854C329.231 84.4628 330.037 86.6073 330.189 88.8477C330.341 91.0881 329.832 93.3238 328.727 95.272C327.622 97.2203 325.97 98.7935 323.98 99.7929C321.311 101.13 318.226 101.342 315.402 100.383C312.579 99.4238 310.247 97.3721 308.918 94.6778ZM327.494 85.3493C326.657 83.6477 325.34 82.235 323.708 81.2899C322.077 80.3448 320.205 79.9098 318.329 80.0398C316.453 80.1699 314.658 80.8591 313.17 82.0205C311.681 83.1818 310.567 84.7631 309.968 86.5643C309.369 88.3655 309.312 90.3058 309.804 92.1397C310.297 93.9736 311.316 95.6189 312.733 96.8674C314.151 98.1159 315.903 98.9117 317.768 99.1539C319.633 99.3962 321.527 99.0742 323.211 98.2286C325.467 97.0924 327.184 95.0984 327.987 92.6839C328.79 90.2694 328.613 87.6317 327.494 85.3493Z" fill="#CCCCCC"/>
<path d="M272.403 95.9821C276.221 95.9821 279.317 92.8538 279.317 88.9948C279.317 85.1358 276.221 82.0075 272.403 82.0075C268.584 82.0075 265.489 85.1358 265.489 88.9948C265.489 92.8538 268.584 95.9821 272.403 95.9821Z" fill="#CCCCCC"/>
<path d="M232.083 91.5589C234.089 91.5589 235.715 89.9156 235.715 87.8885C235.715 85.8614 234.089 84.2181 232.083 84.2181C230.077 84.2181 228.451 85.8614 228.451 87.8885C228.451 89.9156 230.077 91.5589 232.083 91.5589Z" fill="#CCCCCC"/>
<path d="M439.857 122L396.203 136.184C394.587 136.706 393.103 137.57 391.85 138.716C390.597 139.862 389.606 141.264 388.942 142.827C388.279 144.39 387.959 146.077 388.004 147.775C388.05 149.472 388.46 151.14 389.206 152.665C395.423 165.277 404.587 176.206 415.923 184.526C427.259 192.846 440.432 198.312 454.328 200.461C456.021 200.721 457.749 200.612 459.396 200.142C461.042 199.671 462.567 198.849 463.866 197.734C465.163 196.622 466.204 195.241 466.918 193.689C467.632 192.136 468.001 190.447 468 188.738V147.965C461.535 146.287 455.583 143.04 450.674 138.51C445.764 133.981 442.049 128.31 439.857 122Z" fill="#5A9BD5"/>
<path d="M559.07 146.583C558.408 145.011 557.415 143.6 556.159 142.446C554.903 141.292 553.413 140.422 551.79 139.895L509.024 126C506.528 131.871 502.533 136.983 497.439 140.824C492.345 144.665 486.331 147.1 480 147.886V192.444C480.001 194.154 480.371 195.844 481.086 197.398C481.801 198.951 482.844 200.332 484.142 201.446C485.44 202.559 486.964 203.379 488.609 203.848C490.253 204.318 491.98 204.426 493.671 204.166C507.565 202.017 520.738 196.551 532.072 188.232C543.407 179.913 552.57 168.986 558.787 156.374C559.534 154.858 559.946 153.199 559.995 151.51C560.044 149.82 559.728 148.14 559.07 146.583Z" fill="#A3D9A5"/>
<path d="M476.95 69.9726C483.756 69.9649 490.448 71.7222 496.372 75.0729L515.777 48.3645C516.766 47.0043 517.448 45.4457 517.776 43.7962C518.105 42.1467 518.071 40.4456 517.678 38.8104C517.297 37.2063 516.573 35.7039 515.556 34.4069C514.538 33.1099 513.251 32.0491 511.784 31.2978C499.803 25.2049 486.556 22.0197 473.115 22.0001C459.675 21.9805 446.418 25.1272 434.42 31.1852C432.907 31.9487 431.578 33.0319 430.525 34.36C429.473 35.6881 428.721 37.2291 428.323 38.8765C427.93 40.5003 427.895 42.1901 428.221 43.8288C428.546 45.4674 429.224 47.0158 430.207 48.3665L452.22 78.6651C459.229 73.0287 467.955 69.9612 476.95 69.9726Z" fill="#2E2E2E"/>
<path d="M437.34 107.972C437.33 98.924 440.787 90.2156 447 83.6377L425.677 54.2897C424.799 53.0806 423.671 52.0749 422.37 51.341C421.069 50.6071 419.624 50.1622 418.136 50.0367C416.647 49.9113 415.148 50.1081 413.743 50.6138C412.337 51.1195 411.056 51.9223 409.988 52.9674C402.684 60.0877 396.885 68.6034 392.936 78.0086C388.987 87.4138 386.969 97.5167 387 107.717C387 111.569 387.288 115.416 387.859 119.225C388.084 120.731 388.634 122.17 389.472 123.442C390.309 124.713 391.414 125.787 392.709 126.588C393.99 127.38 395.428 127.884 396.923 128.064C398.418 128.243 399.935 128.094 401.367 127.628L438.185 115.665C437.625 113.139 437.341 110.56 437.34 107.972Z" fill="#CECECE"/>
<path d="M139.376 342.736C152.795 342.736 163.673 331.743 163.673 318.182C163.673 304.621 152.795 293.628 139.376 293.628C125.957 293.628 115.079 304.621 115.079 318.182C115.079 331.743 125.957 342.736 139.376 342.736Z" fill="#A0616A"/>
<path d="M230.287 491.438L230.854 503.681L184.396 511.719L183.559 493.65L230.287 491.438Z" fill="#A0616A"/>
<path d="M241.886 487.76L243.175 515.592L242.681 515.616C238.865 515.869 235.062 514.94 231.783 512.952C228.817 511.041 227.109 508.396 226.975 505.503L226.187 488.503L241.886 487.76Z" fill="#2F2E41"/>
<path d="M228.987 511.584L241.115 511.583L246.885 464.309L228.985 464.31L228.987 511.584Z" fill="#A0616A"/>
<path d="M225.894 507.582L249.778 507.581C251.777 507.581 253.757 507.979 255.604 508.752C257.451 509.525 259.129 510.658 260.542 512.086C261.955 513.515 263.077 515.21 263.841 517.076C264.606 518.943 265 520.943 265 522.963V523.463L225.895 523.464L225.894 507.582Z" fill="#2F2E41"/>
<path d="M114.49 500.132C115.819 499.318 116.955 498.22 117.818 496.915C118.682 495.61 119.251 494.129 119.487 492.577C119.723 491.025 119.619 489.44 119.183 487.933C118.747 486.426 117.99 485.034 116.964 483.855L126.644 386.529L103.589 388.158L101.324 483.314C99.4779 485.187 98.3761 487.679 98.2271 490.318C98.0781 492.957 98.8922 495.56 100.515 497.633C102.138 499.706 104.457 501.105 107.033 501.566C109.608 502.026 112.262 501.516 114.49 500.132Z" fill="#A0616A"/>
<path d="M126.531 403.4L102.642 400.458C101.962 400.374 101.308 400.143 100.725 399.781C100.141 399.419 99.6418 398.934 99.2605 398.359C98.8791 397.784 98.6249 397.133 98.515 396.45C98.4051 395.767 98.4422 395.068 98.6237 394.401L104.985 371.022C105.429 367.51 107.232 364.319 110 362.148C112.768 359.978 116.275 359.006 119.751 359.444C123.228 359.883 126.391 361.697 128.546 364.488C130.701 367.28 131.673 370.821 131.248 374.335L131.871 398.496C131.889 399.187 131.759 399.875 131.49 400.511C131.221 401.148 130.819 401.718 130.312 402.183C129.806 402.649 129.205 402.998 128.553 403.208C127.9 403.418 127.211 403.483 126.531 403.4Z" fill="#A3D9A5"/>
<path d="M123.189 513.918C120.294 513.718 117.503 512.749 115.097 511.11C112.692 509.47 110.757 507.217 109.489 504.58C108.221 501.942 107.664 499.013 107.875 496.089C108.086 493.164 109.057 490.348 110.691 487.924L126.295 471.553L183.176 420.068L213.586 394.566C215.361 393.078 217.48 392.07 219.745 391.636C222.011 391.202 224.348 391.356 226.538 392.085C228.728 392.813 230.7 394.092 232.267 395.8C233.835 397.509 234.947 399.592 235.501 401.854L251.388 466.804C251.655 467.885 251.514 469.027 250.994 470.008C250.474 470.99 249.612 471.742 248.574 472.117L231.254 478.418C230.674 478.629 230.057 478.716 229.442 478.673C228.827 478.631 228.228 478.46 227.682 478.171C227.135 477.882 226.655 477.481 226.27 476.995C225.885 476.508 225.604 475.946 225.445 475.345L218.857 450.376L182.197 485.793L193.635 490.047C194.684 490.442 195.548 491.22 196.057 492.228C196.565 493.236 196.681 494.4 196.382 495.49L192.686 508.723C192.431 509.646 191.889 510.463 191.142 511.052C190.394 511.641 189.479 511.973 188.531 511.998L123.189 513.918Z" fill="#2F2E41"/>
<path d="M121.636 477.003L120.131 421.466L110.64 397.107C108.702 392.137 107.863 386.799 108.18 381.467C108.497 376.135 109.964 370.938 112.477 366.239C114.99 361.54 118.489 357.452 122.729 354.263C126.97 351.074 131.848 348.86 137.024 347.775C137.805 347.611 138.584 347.452 139.361 347.296C144.326 346.3 149.442 346.365 154.38 347.488C159.319 348.61 163.97 350.765 168.034 353.813C172.099 356.861 175.487 360.736 177.981 365.187C180.475 369.638 182.019 374.568 182.515 379.659L186.975 421.469L186.957 421.549C179.845 453.517 159.265 471.11 122.191 476.916L121.636 477.003Z" fill="#A3D9A5"/>
<path d="M144.082 438.425C144.623 438.341 145.17 438.3 145.717 438.303L173.178 397.218L167.977 386.381L183.136 376.312L194.187 394.593C195.08 396.07 195.475 397.799 195.312 399.522C195.149 401.245 194.438 402.868 193.285 404.148L155.701 445.849C156.292 447.894 156.252 450.073 155.587 452.096C154.921 454.118 153.663 455.888 151.978 457.169C150.294 458.451 148.263 459.184 146.156 459.271C144.049 459.358 141.966 458.795 140.183 457.656C138.401 456.517 137.004 454.857 136.178 452.897C135.352 450.936 135.136 448.767 135.559 446.68C135.983 444.592 137.025 442.684 138.547 441.21C140.07 439.735 142 438.764 144.082 438.425Z" fill="#A0616A"/>
<path d="M170.775 396.455C170.159 396.281 169.587 395.975 169.098 395.557C168.61 395.14 168.216 394.621 167.945 394.035L158.447 373.598C156.637 370.843 155.981 367.475 156.623 364.232C157.265 360.99 159.154 358.136 161.874 356.298C164.595 354.46 167.926 353.787 171.137 354.427C174.347 355.067 177.176 356.967 179.003 359.711L194.008 376.539C194.436 377.019 194.757 377.587 194.948 378.204C195.14 378.82 195.198 379.472 195.117 380.113C195.037 380.754 194.821 381.371 194.484 381.92C194.147 382.47 193.697 382.939 193.164 383.297L174.437 395.869C173.904 396.227 173.301 396.465 172.669 396.566C172.037 396.667 171.391 396.629 170.775 396.455Z" fill="#A3D9A5"/>
<path d="M165.052 320.33L164.04 317.722C161.246 310.525 154.564 304.994 147.414 303.957C143.847 303.485 140.22 304.047 136.957 305.576C133.693 307.105 130.925 309.54 128.977 312.596C127.323 315.495 126.017 318.584 125.087 321.796C124.768 322.752 124.447 323.444 123.83 323.653C123.135 323.906 122.444 323.474 121.298 322.756C121.043 322.596 120.748 322.513 120.447 322.516C120.147 322.519 119.853 322.609 119.601 322.774C119.349 322.94 119.149 323.174 119.024 323.45C118.898 323.726 118.854 324.033 118.894 324.334L120.096 333.001L119.09 332.097C112.549 326.213 111.205 315.14 115.93 308.115L105.176 310.348L105.661 309.414C110.127 300.702 117.825 294.132 127.072 291.14L116.771 288.847L117.812 288.199C127.037 282.456 139.207 282.618 148.814 288.601C153.64 291.726 157.637 295.994 160.457 301.036C163.277 306.077 164.834 311.739 164.994 317.528L165.052 320.33Z" fill="#2F2E41"/>
</g>
<defs>
<clipPath id="clip0_31_140">
<rect width="717" height="585" fill="white"/>
</clipPath>
</defs>
</svg>
